<mxfile host="Electron" modified="2023-05-03T06:21:05.849Z" agent="Mozilla/5.0 (Windows NT 10.0; Win64; x64) AppleWebKit/537.36 (KHTML, like Gecko) draw.io/21.1.2 Chrome/106.0.5249.199 Electron/21.4.3 Safari/537.36" etag="eQh94hXyao0szpqQYZBT" version="21.1.2" type="device">
  <diagram name="Page-1" id="QOy-62rft3aJBEb2ZEJd">
    <mxGraphModel dx="827" dy="399" grid="0" gridSize="10" guides="1" tooltips="1" connect="1" arrows="1" fold="1" page="1" pageScale="1" pageWidth="850" pageHeight="1100" math="0" shadow="0">
      <root>
        <mxCell id="0" />
        <mxCell id="1" parent="0" />
        <mxCell id="emGKkJaccXBCEUtKK9Hi-1" value="Home" style="shape=module;align=left;spacingLeft=20;align=center;verticalAlign=top;whiteSpace=wrap;html=1;" parent="1" vertex="1">
          <mxGeometry x="340" y="80" width="100" height="50" as="geometry" />
        </mxCell>
        <mxCell id="emGKkJaccXBCEUtKK9Hi-3" value="predictions" style="shape=module;align=left;spacingLeft=20;align=center;verticalAlign=top;whiteSpace=wrap;html=1;" parent="1" vertex="1">
          <mxGeometry x="570" y="160" width="100" height="50" as="geometry" />
        </mxCell>
        <mxCell id="emGKkJaccXBCEUtKK9Hi-4" value="contact" style="shape=module;align=left;spacingLeft=20;align=center;verticalAlign=top;whiteSpace=wrap;html=1;" parent="1" vertex="1">
          <mxGeometry x="360" y="230" width="100" height="50" as="geometry" />
        </mxCell>
        <mxCell id="emGKkJaccXBCEUtKK9Hi-5" value="profile" style="shape=module;align=left;spacingLeft=20;align=center;verticalAlign=top;whiteSpace=wrap;html=1;" parent="1" vertex="1">
          <mxGeometry x="170" y="200" width="100" height="50" as="geometry" />
        </mxCell>
        <mxCell id="emGKkJaccXBCEUtKK9Hi-6" value="matches" style="shape=module;align=left;spacingLeft=20;align=center;verticalAlign=top;whiteSpace=wrap;html=1;" parent="1" vertex="1">
          <mxGeometry x="600" y="30" width="100" height="50" as="geometry" />
        </mxCell>
        <mxCell id="emGKkJaccXBCEUtKK9Hi-11" value="" style="shape=providedRequiredInterface;html=1;verticalLabelPosition=bottom;sketch=0;rotation=-195;" parent="1" vertex="1">
          <mxGeometry x="510" y="70" width="20" height="20" as="geometry" />
        </mxCell>
        <mxCell id="emGKkJaccXBCEUtKK9Hi-15" value="" style="endArrow=none;html=1;rounded=0;exitX=0;exitY=0.5;exitDx=0;exitDy=0;exitPerimeter=0;entryX=0;entryY=0;entryDx=0;entryDy=35;entryPerimeter=0;" parent="1" source="emGKkJaccXBCEUtKK9Hi-11" target="emGKkJaccXBCEUtKK9Hi-6" edge="1">
          <mxGeometry width="50" height="50" relative="1" as="geometry">
            <mxPoint x="400" y="240" as="sourcePoint" />
            <mxPoint x="450" y="190" as="targetPoint" />
          </mxGeometry>
        </mxCell>
        <mxCell id="emGKkJaccXBCEUtKK9Hi-16" value="" style="shape=providedRequiredInterface;html=1;verticalLabelPosition=bottom;sketch=0;rotation=-150;" parent="1" vertex="1">
          <mxGeometry x="490" y="150" width="20" height="20" as="geometry" />
        </mxCell>
        <mxCell id="emGKkJaccXBCEUtKK9Hi-17" value="" style="shape=providedRequiredInterface;html=1;verticalLabelPosition=bottom;sketch=0;rotation=-100;" parent="1" vertex="1">
          <mxGeometry x="390" y="170" width="20" height="20" as="geometry" />
        </mxCell>
        <mxCell id="emGKkJaccXBCEUtKK9Hi-18" value="" style="shape=providedRequiredInterface;html=1;verticalLabelPosition=bottom;sketch=0;rotation=-30;" parent="1" vertex="1">
          <mxGeometry x="260" y="140" width="20" height="20" as="geometry" />
        </mxCell>
        <mxCell id="emGKkJaccXBCEUtKK9Hi-19" value="" style="endArrow=none;html=1;rounded=0;exitX=0;exitY=0;exitDx=0;exitDy=15;exitPerimeter=0;entryX=0;entryY=0.5;entryDx=0;entryDy=0;entryPerimeter=0;" parent="1" source="emGKkJaccXBCEUtKK9Hi-3" target="emGKkJaccXBCEUtKK9Hi-16" edge="1">
          <mxGeometry width="50" height="50" relative="1" as="geometry">
            <mxPoint x="400" y="240" as="sourcePoint" />
            <mxPoint x="450" y="190" as="targetPoint" />
          </mxGeometry>
        </mxCell>
        <mxCell id="emGKkJaccXBCEUtKK9Hi-20" value="" style="endArrow=none;html=1;rounded=0;exitX=0.389;exitY=-0.062;exitDx=0;exitDy=0;exitPerimeter=0;entryX=0;entryY=0.5;entryDx=0;entryDy=0;entryPerimeter=0;" parent="1" source="emGKkJaccXBCEUtKK9Hi-4" target="emGKkJaccXBCEUtKK9Hi-17" edge="1">
          <mxGeometry width="50" height="50" relative="1" as="geometry">
            <mxPoint x="400" y="240" as="sourcePoint" />
            <mxPoint x="450" y="190" as="targetPoint" />
          </mxGeometry>
        </mxCell>
        <mxCell id="emGKkJaccXBCEUtKK9Hi-21" value="" style="endArrow=none;html=1;rounded=0;exitX=1;exitY=0.5;exitDx=0;exitDy=0;exitPerimeter=0;" parent="1" source="emGKkJaccXBCEUtKK9Hi-17" target="emGKkJaccXBCEUtKK9Hi-1" edge="1">
          <mxGeometry width="50" height="50" relative="1" as="geometry">
            <mxPoint x="400" y="240" as="sourcePoint" />
            <mxPoint x="450" y="190" as="targetPoint" />
          </mxGeometry>
        </mxCell>
        <mxCell id="emGKkJaccXBCEUtKK9Hi-22" value="" style="endArrow=none;html=1;rounded=0;exitX=0.673;exitY=-0.061;exitDx=0;exitDy=0;exitPerimeter=0;entryX=0;entryY=0.5;entryDx=0;entryDy=0;entryPerimeter=0;" parent="1" source="emGKkJaccXBCEUtKK9Hi-5" target="emGKkJaccXBCEUtKK9Hi-18" edge="1">
          <mxGeometry width="50" height="50" relative="1" as="geometry">
            <mxPoint x="400" y="240" as="sourcePoint" />
            <mxPoint x="450" y="190" as="targetPoint" />
          </mxGeometry>
        </mxCell>
        <mxCell id="emGKkJaccXBCEUtKK9Hi-23" value="" style="endArrow=none;html=1;rounded=0;exitX=1;exitY=0.5;exitDx=0;exitDy=0;exitPerimeter=0;entryX=0;entryY=0;entryDx=0;entryDy=15;entryPerimeter=0;" parent="1" source="emGKkJaccXBCEUtKK9Hi-18" target="emGKkJaccXBCEUtKK9Hi-1" edge="1">
          <mxGeometry width="50" height="50" relative="1" as="geometry">
            <mxPoint x="400" y="240" as="sourcePoint" />
            <mxPoint x="450" y="190" as="targetPoint" />
          </mxGeometry>
        </mxCell>
        <mxCell id="emGKkJaccXBCEUtKK9Hi-24" value="" style="endArrow=none;html=1;rounded=0;exitX=1;exitY=0.75;exitDx=0;exitDy=0;entryX=1;entryY=0.5;entryDx=0;entryDy=0;entryPerimeter=0;" parent="1" source="emGKkJaccXBCEUtKK9Hi-1" target="emGKkJaccXBCEUtKK9Hi-16" edge="1">
          <mxGeometry width="50" height="50" relative="1" as="geometry">
            <mxPoint x="400" y="240" as="sourcePoint" />
            <mxPoint x="450" y="190" as="targetPoint" />
          </mxGeometry>
        </mxCell>
        <mxCell id="emGKkJaccXBCEUtKK9Hi-25" value="" style="endArrow=none;html=1;rounded=0;exitX=1;exitY=0.5;exitDx=0;exitDy=0;entryX=1;entryY=0.5;entryDx=0;entryDy=0;entryPerimeter=0;" parent="1" source="emGKkJaccXBCEUtKK9Hi-1" target="emGKkJaccXBCEUtKK9Hi-11" edge="1">
          <mxGeometry width="50" height="50" relative="1" as="geometry">
            <mxPoint x="400" y="240" as="sourcePoint" />
            <mxPoint x="450" y="190" as="targetPoint" />
          </mxGeometry>
        </mxCell>
        <mxCell id="emGKkJaccXBCEUtKK9Hi-26" value="Register" style="shape=module;align=left;spacingLeft=20;align=center;verticalAlign=top;whiteSpace=wrap;html=1;" parent="1" vertex="1">
          <mxGeometry x="180" y="10" width="100" height="50" as="geometry" />
        </mxCell>
        <mxCell id="emGKkJaccXBCEUtKK9Hi-27" value="Login" style="shape=module;align=left;spacingLeft=20;align=center;verticalAlign=top;whiteSpace=wrap;html=1;" parent="1" vertex="1">
          <mxGeometry x="100" y="100" width="100" height="50" as="geometry" />
        </mxCell>
        <mxCell id="emGKkJaccXBCEUtKK9Hi-28" value="" style="shape=providedRequiredInterface;html=1;verticalLabelPosition=bottom;sketch=0;rotation=-15;" parent="1" vertex="1">
          <mxGeometry x="240" y="90" width="20" height="20" as="geometry" />
        </mxCell>
        <mxCell id="emGKkJaccXBCEUtKK9Hi-29" value="" style="shape=providedRequiredInterface;html=1;verticalLabelPosition=bottom;sketch=0;rotation=30;" parent="1" vertex="1">
          <mxGeometry x="320" y="40" width="20" height="20" as="geometry" />
        </mxCell>
        <mxCell id="emGKkJaccXBCEUtKK9Hi-30" value="" style="endArrow=none;html=1;rounded=0;exitX=1;exitY=0.5;exitDx=0;exitDy=0;entryX=0;entryY=0.5;entryDx=0;entryDy=0;entryPerimeter=0;" parent="1" source="emGKkJaccXBCEUtKK9Hi-26" target="emGKkJaccXBCEUtKK9Hi-29" edge="1">
          <mxGeometry width="50" height="50" relative="1" as="geometry">
            <mxPoint x="400" y="170" as="sourcePoint" />
            <mxPoint x="450" y="120" as="targetPoint" />
          </mxGeometry>
        </mxCell>
        <mxCell id="emGKkJaccXBCEUtKK9Hi-31" value="" style="endArrow=none;html=1;rounded=0;exitX=1;exitY=0.5;exitDx=0;exitDy=0;exitPerimeter=0;entryX=0.396;entryY=-0.045;entryDx=0;entryDy=0;entryPerimeter=0;" parent="1" source="emGKkJaccXBCEUtKK9Hi-29" target="emGKkJaccXBCEUtKK9Hi-1" edge="1">
          <mxGeometry width="50" height="50" relative="1" as="geometry">
            <mxPoint x="400" y="170" as="sourcePoint" />
            <mxPoint x="450" y="120" as="targetPoint" />
          </mxGeometry>
        </mxCell>
        <mxCell id="emGKkJaccXBCEUtKK9Hi-32" value="" style="endArrow=none;html=1;rounded=0;exitX=1;exitY=0.5;exitDx=0;exitDy=0;exitPerimeter=0;entryX=0;entryY=0;entryDx=0;entryDy=15;entryPerimeter=0;" parent="1" source="emGKkJaccXBCEUtKK9Hi-28" target="emGKkJaccXBCEUtKK9Hi-1" edge="1">
          <mxGeometry width="50" height="50" relative="1" as="geometry">
            <mxPoint x="400" y="170" as="sourcePoint" />
            <mxPoint x="450" y="120" as="targetPoint" />
          </mxGeometry>
        </mxCell>
        <mxCell id="emGKkJaccXBCEUtKK9Hi-33" value="" style="endArrow=none;html=1;rounded=0;exitX=1;exitY=0.25;exitDx=0;exitDy=0;entryX=0;entryY=0.5;entryDx=0;entryDy=0;entryPerimeter=0;" parent="1" source="emGKkJaccXBCEUtKK9Hi-27" target="emGKkJaccXBCEUtKK9Hi-28" edge="1">
          <mxGeometry width="50" height="50" relative="1" as="geometry">
            <mxPoint x="400" y="170" as="sourcePoint" />
            <mxPoint x="450" y="120" as="targetPoint" />
          </mxGeometry>
        </mxCell>
        <mxCell id="emGKkJaccXBCEUtKK9Hi-34" value="" style="endArrow=none;html=1;rounded=0;exitX=0.75;exitY=0;exitDx=0;exitDy=0;entryX=0.341;entryY=0.982;entryDx=0;entryDy=0;entryPerimeter=0;" parent="1" source="emGKkJaccXBCEUtKK9Hi-27" target="emGKkJaccXBCEUtKK9Hi-26" edge="1">
          <mxGeometry width="50" height="50" relative="1" as="geometry">
            <mxPoint x="400" y="170" as="sourcePoint" />
            <mxPoint x="450" y="120" as="targetPoint" />
          </mxGeometry>
        </mxCell>
        <mxCell id="emGKkJaccXBCEUtKK9Hi-35" value="" style="endArrow=none;html=1;rounded=0;exitX=0.402;exitY=-0.063;exitDx=0;exitDy=0;exitPerimeter=0;entryX=0.378;entryY=1.001;entryDx=0;entryDy=0;entryPerimeter=0;" parent="1" source="emGKkJaccXBCEUtKK9Hi-3" target="emGKkJaccXBCEUtKK9Hi-6" edge="1">
          <mxGeometry width="50" height="50" relative="1" as="geometry">
            <mxPoint x="400" y="170" as="sourcePoint" />
            <mxPoint x="450" y="120" as="targetPoint" />
          </mxGeometry>
        </mxCell>
        <mxCell id="emGKkJaccXBCEUtKK9Hi-39" value="" style="endArrow=none;html=1;rounded=0;exitX=0.75;exitY=0;exitDx=0;exitDy=0;" parent="1" source="emGKkJaccXBCEUtKK9Hi-1" edge="1">
          <mxGeometry width="50" height="50" relative="1" as="geometry">
            <mxPoint x="400" y="170" as="sourcePoint" />
            <mxPoint x="430" y="30" as="targetPoint" />
          </mxGeometry>
        </mxCell>
        <mxCell id="emGKkJaccXBCEUtKK9Hi-40" value="" style="shape=requiredInterface;html=1;verticalLabelPosition=bottom;sketch=0;rotation=100;" parent="1" vertex="1">
          <mxGeometry x="425" y="20" width="10" height="20" as="geometry" />
        </mxCell>
        <mxCell id="emGKkJaccXBCEUtKK9Hi-41" value="vaibhav patel&lt;br&gt;201070055" style="text;html=1;align=center;verticalAlign=middle;resizable=0;points=[];autosize=1;strokeColor=none;fillColor=none;" parent="1" vertex="1">
          <mxGeometry x="505" y="240" width="90" height="40" as="geometry" />
        </mxCell>
        <mxCell id="emGKkJaccXBCEUtKK9Hi-42" value="component diagram" style="text;html=1;align=center;verticalAlign=middle;resizable=0;points=[];autosize=1;strokeColor=none;fillColor=none;" parent="1" vertex="1">
          <mxGeometry x="138" y="277" width="124" height="26" as="geometry" />
        </mxCell>
      </root>
    </mxGraphModel>
  </diagram>
</mxfile>
